<svg width="382" height="473" viewBox="0 0 382 473" fill="none" xmlns="http://www.w3.org/2000/svg">
<path d="M149.406 1.12374C143.606 3.32374 141.006 5.52374 135.006 13.3237C122.206 29.9237 120.706 30.6237 101.306 30.7237C89.9062 30.7237 86.6062 31.1237 83.3062 32.6237C74.5062 36.6237 71.0062 42.3237 67.9062 57.6237C65.6062 68.8237 62.6062 75.3237 58.0062 78.5237C56.5062 79.6237 51.0062 82.4237 45.8062 84.7237C34.1062 90.0237 31.3062 92.0237 28.1062 97.4237C24.4062 103.824 24.1062 110.424 27.2062 122.424C31.6062 139.724 30.7062 143.824 19.4062 157.224C10.9062 167.324 9.60618 169.724 9.00618 177.224C8.40618 185.224 10.4062 189.624 19.3062 200.124C30.6062 213.624 31.4062 217.024 27.3062 232.824C24.0062 245.324 23.8062 251.724 26.5062 257.824C29.2062 263.824 34.3062 268.024 45.3062 272.924C55.9062 277.624 60.2062 280.624 62.4062 284.924C64.5062 289.024 67.3062 297.524 69.2062 306.024C72.9062 322.124 80.6062 326.924 102.306 326.624C119.806 326.424 121.906 327.524 133.406 342.924C140.506 352.424 142.206 353.724 150.206 356.724C157.206 359.424 161.306 358.524 175.106 351.524C189.406 344.224 192.406 344.324 208.406 352.024C223.606 359.524 227.006 359.924 235.806 355.524C241.406 352.724 243.306 350.924 249.506 342.824C261.106 327.824 263.406 326.724 283.106 326.724C297.406 326.724 301.106 325.724 306.606 320.424C310.906 316.324 312.306 313.624 313.806 306.224C314.506 302.924 315.406 299.724 315.806 299.224C316.206 298.624 316.906 296.424 317.306 294.224C318.906 284.924 322.906 281.124 338.506 273.524C351.306 267.424 354.106 264.924 357.306 257.424C359.406 252.324 359.106 245.724 356.306 234.724C352.106 218.424 353.006 214.724 364.306 201.224C372.606 191.424 374.806 186.924 374.806 179.724C374.806 172.424 372.606 168.024 364.006 157.724C357.206 149.624 353.806 143.124 353.806 138.124C353.806 136.824 355.206 130.324 356.806 123.524C360.106 110.324 360.106 106.224 356.806 99.7237C354.006 94.2237 350.606 91.6237 337.506 85.2237C326.706 79.9237 324.906 78.7237 322.106 74.4237C320.306 71.8237 318.406 67.1237 317.806 63.9237C313.606 42.9237 311.306 38.4237 302.806 34.0237C298.706 31.9237 296.706 31.6237 283.306 31.4237C269.006 31.2237 268.106 31.1237 263.706 28.5237C260.606 26.7237 256.806 22.7237 251.906 16.3237C244.006 5.72374 239.606 2.22374 232.506 0.823738C225.706 -0.376262 220.306 0.923738 208.606 6.92374C199.606 11.4237 197.606 12.1237 192.306 12.1237C187.006 12.1237 185.006 11.4237 175.106 6.42374C162.406 0.0237379 156.006 -1.27626 149.406 1.12374ZM210.106 61.2237C251.706 67.5237 288.006 96.7237 303.206 136.324C313.506 163.024 313.506 195.424 303.306 221.924C280.906 279.824 218.306 311.124 158.906 294.124C147.206 290.724 129.706 282.024 120.206 274.824C89.5062 251.624 72.5062 217.424 72.5062 179.224C72.5062 147.924 83.7062 119.624 105.006 97.1237C132.006 68.7237 171.106 55.3237 210.106 61.2237Z" fill="#ECC140"/>
<path d="M61.6062 307.524C59.0062 312.324 55.7062 318.224 54.4062 320.724C48.0062 332.224 35.2062 355.924 31.5062 362.724C29.3062 366.824 23.8062 376.924 19.3062 385.224C4.4062 412.324 -0.193799 421.124 0.00620114 421.724C0.206201 422.124 6.8062 419.724 14.8062 416.524C22.8062 413.324 30.9062 410.024 32.8062 409.324C34.7062 408.624 44.2062 404.824 53.8062 400.924C63.4062 397.024 71.9062 393.724 72.7062 393.524C73.7062 393.324 74.4062 394.624 75.0062 397.724C75.5062 400.224 77.9062 412.524 80.3062 425.224C82.8062 437.824 85.8062 453.624 87.1062 460.124L89.4062 472.124L96.8062 458.624C100.906 451.224 106.206 441.424 108.706 436.724C111.106 432.024 114.206 426.524 115.506 424.524C116.706 422.424 117.806 420.524 117.806 420.124C117.806 419.724 119.306 416.924 121.206 413.824C123.006 410.724 126.306 404.824 128.406 400.724C130.506 396.624 133.206 391.624 134.306 389.724C135.506 387.824 139.306 380.824 142.806 374.224C146.306 367.624 149.606 361.424 150.206 360.324C151.006 358.924 151.006 358.324 150.006 358.024C143.606 355.724 139.706 352.324 132.506 342.924C127.106 335.924 123.206 331.924 120.006 330.024C115.506 327.324 114.706 327.224 100.806 327.124C85.7062 327.024 82.6062 326.324 77.3062 322.324C73.5062 319.324 69.2062 311.524 68.3062 305.724C67.9062 303.224 67.3062 300.724 66.9062 300.024C66.6062 299.324 64.2062 302.624 61.6062 307.524Z" fill="#021927"/>
<path d="M315.506 302.324C315.206 303.424 314.506 306.524 313.806 309.424C312.206 316.424 307.906 322.024 301.606 325.124C296.806 327.524 295.406 327.724 282.406 327.724C262.606 327.824 263.206 327.424 246.806 347.424C242.006 353.324 235.806 357.724 232.306 357.724C230.706 357.724 230.306 359.724 231.706 361.324C232.606 362.224 235.606 367.724 244.806 385.224C247.706 390.724 250.406 395.624 250.806 396.224C251.206 396.724 253.906 401.724 256.806 407.224C259.706 412.724 265.606 423.524 269.806 431.224C274.006 438.924 279.406 448.824 281.806 453.224C284.106 457.624 287.406 463.624 289.106 466.624L292.206 472.024L294.406 460.624C295.606 454.324 299.006 437.324 301.806 422.724C304.606 408.124 307.206 395.524 307.606 394.624C308.306 393.024 318.306 396.724 370.306 417.924C380.506 422.124 383.506 422.524 381.006 419.424C380.506 418.724 378.306 414.824 376.106 410.724C371.306 401.724 367.606 395.024 361.406 383.824C358.906 379.224 356.806 375.324 356.806 375.124C356.806 374.924 353.706 369.224 350.006 362.524C346.206 355.724 340.506 345.224 337.306 339.224C334.106 333.124 331.206 327.724 330.806 327.224C330.406 326.624 327.706 321.724 324.806 316.224C316.806 301.124 316.106 300.124 315.506 302.324Z" fill="#021927"/>
</svg>
