<svg width="885" height="885" viewBox="0 0 885 885" fill="none" xmlns="http://www.w3.org/2000/svg">
<path d="M885 442.5C885 686.886 686.886 885 442.5 885C198.114 885 0 686.886 0 442.5C0 198.114 198.114 0 442.5 0C686.886 0 885 198.114 885 442.5Z" fill="#FAFAEE"/>
<path d="M442.5 442.5C479.706 442.5 515.388 427.724 541.697 401.422C568.006 375.12 582.786 339.447 582.786 302.25C582.786 265.053 568.006 229.38 541.697 203.078C515.388 176.776 479.706 162 442.5 162C405.294 162 369.612 176.776 343.303 203.078C316.994 229.38 302.214 265.053 302.214 302.25C302.214 339.447 316.994 375.12 343.303 401.422C369.612 427.724 405.294 442.5 442.5 442.5ZM392.414 495.094C284.459 495.094 197 582.531 197 690.458C197 708.427 211.577 723 229.551 723H655.449C673.423 723 688 708.427 688 690.458C688 582.531 600.541 495.094 492.586 495.094H392.414Z" fill="#021927"/>
<path fill-rule="evenodd" clip-rule="evenodd" d="M442 158H134V466V774H442H750V466V158H442ZM442 158C612.104 158 750 295.896 750 466C750 636.104 612.104 774 442 774C271.896 774 134 636.104 134 466C134 295.896 271.896 158 442 158Z" fill="#FAFAEE"/>
</svg>
