<svg width="54" height="48" viewBox="0 0 54 48" fill="none" xmlns="http://www.w3.org/2000/svg">
<path d="M4.3 5.22384C1.9 8.22384 0 11.1238 0 11.6238C0 12.1238 1.9 14.9238 4.1 17.7238C7.5 21.9238 8.8 22.9238 10.9 22.6238C13.8 22.3238 15 18.7238 13 16.2238C11.9 15.0238 13.5 14.8238 24.1 14.8238C38 14.8238 41.3 15.9238 45 22.0238C47.5 26.1238 47.5 29.4238 45.2 33.7238C42.8 38.2238 37.8 40.8238 31.5 40.8238C25.4 40.8238 23.7 41.8238 24.2 44.9238C24.5 47.1238 25 47.3238 30.5 47.6238C38 48.0238 43.1 46.6238 47.5 42.7238C57.4 33.9238 55.3 16.6238 43.5 10.4238C40.1 8.62384 37.3 8.22384 25.7 8.02384C14.1 7.72384 12.1 7.42384 13 6.32384C15 3.92384 13.8 0.32384 11 0.0238396C9 -0.17616 7.6 0.82384 4.3 5.22384Z" fill="#FAFAEE"/>
</svg>
